<?xml version="1.0" standalone="no"?>
<!DOCTYPE svg PUBLIC "-//W3C//DTD SVG 20010904//EN"
 "http://www.w3.org/TR/2001/REC-SVG-20010904/DTD/svg10.dtd">
<svg version="1.0" xmlns="http://www.w3.org/2000/svg"
 width="1280.000000pt" height="1280.000000pt" viewBox="0 0 1280.000000 1280.000000"
 preserveAspectRatio="xMidYMid meet">
<metadata>
Created by potrace 1.11, written by Peter Selinger 2001-2013
</metadata>
<g transform="translate(0.000000,1280.000000) scale(0.100000,-0.100000)"
fill="#000000" stroke="none">
<path d="M329 9619 c-6 -3 -10 -14 -10 -25 1 -21 1 -46 1 -69 0 -8 0 -22 0
-30 0 -8 0 -22 0 -30 0 -8 0 -22 0 -30 0 -8 0 -22 0 -30 0 -8 0 -22 0 -30 0
-8 0 -22 0 -30 0 -8 1 -30 2 -47 2 -18 0 -43 -4 -55 -4 -13 -3 -23 2 -23 5 0
5 -12 0 -30 -5 -16 -5 -30 -1 -30 5 0 5 -18 1 -40 -4 -22 -4 -40 1 -40 4 0 4
-13 -1 -30 -5 -17 -5 -32 0 -35 5 -3 6 -16 2 -28 -9 -25 -8 -74 1 -83 4 -4 2
-15 -3 -25 -7 -11 -7 -20 0 -24 5 -3 6 -15 1 -28 -5 -12 -5 -34 0 -49 4 -16 4
-28 -1 -28 -5 0 -5 -13 0 -30 5 -17 5 -30 0 -30 -5 0 -5 -13 0 -30 5 -17 5
-30 0 -30 -5 0 -5 -13 0 -30 5 -18 5 -30 0 -30 -6 0 -6 -10 0 -24 5 -13 6 -27
3 -30 -8 -8 -9 -76 -1 -76 4 0 3 -13 -2 -30 -5 -16 -6 -30 -2 -30 8 0 7 -83
-2 -105 -3 -8 -1 -15 4 -15 5 0 5 -13 0 -30 -5 -16 -5 -30 -1 -30 5 0 5 -18 1
-40 -4 -22 -4 -40 1 -40 4 0 4 -13 -1 -30 -5 -17 -5 -32 0 -35 5 -3 6 -16 2
-28 -4 -12 -6 -35 -5 -52 2 -16 3 -36 3 -42 0 -7 0 -20 0 -28 0 -8 0 -22 0
-30 0 -8 0 -22 0 -30 0 -8 0 -22 0 -30 0 -8 0 -22 0 -30 0 -8 0 -22 0 -30 0
-8 0 -22 0 -30 0 -8 0 -22 0 -30 0 -8 0 -22 0 -30 0 -8 0 -22 0 -30 0 -8 0
-22 0 -30 0 -8 0 -22 0 -30 0 -8 0 -22 0 -30 0 -8 0 -22 0 -30 0 -8 0 -22 0
-30 0 -8 0 -22 0 -30 0 -8 0 -22 0 -30 0 -8 1 -30 2 -47 2 -18 0 -43 -4 -55
-4 -13 -3 -23 2 -23 5 0 5 -12 0 -30 -5 -16 -5 -30 -1 -30 5 0 5 -18 1 -40 -4
-22 -4 -40 1 -40 4 0 4 -13 -1 -30 -5 -17 -5 -32 0 -35 5 -3 6 -16 2 -28 -9
-25 -8 -74 1 -83 4 -4 2 -15 -3 -25 -7 -11 -7 -20 0 -24 5 -3 6 -15 1 -28 -5
-12 -5 -34 0 -49 4 -16 4 -28 -1 -28 -5 0 -5 -13 0 -30 5 -17 5 -30 0 -30 -5
0 -5 -13 0 -30 5 -17 5 -30 0 -30 -5 0 -5 -13 0 -30 5 -18 5 -30 0 -30 -6 0
-6 -10 0 -24 5 -13 6 -27 3 -30 -8 -8 -9 -76 -1 -76 4 0 3 -13 -2 -30 -5 -16
-6 -30 -2 -30 8 0 7 -83 -2 -105 -3 -8 -1 -15 4 -15 5 0 5 -13 0 -30 -5 -16
-5 -30 -1 -30 5 0 5 -18 1 -40 -4 -22 -4 -40 1 -40 4 0 4 -13 -1 -30 -5 -17
-5 -32 0 -35 5 -3 6 -16 2 -28 -4 -12 -6 -35 -5 -52 2 -16 3 -36 3 -42 0 -7 0
-20 0 -28 0 -8 0 -22 0 -30 0 -8 0 -22 0 -30 0 -8 0 -22 0 -30 0 -8 0 -22 0
-30 0 -8 0 -22 0 -30 0 -8 0 -21 0 -27 -1 -7 1 -32 2 -56 2 -23 0 -42 -4 -42
-8 0 3 -43 13 -50 4 -3 895 -5 1981 -5 l1973 0 0 1983 c1 1090 -2 1982 -5
1983 -25 4 -3944 3 -3951 -2z"/>
<path d="M5284 9618 c-3 -4 -5 -27 -4 -50 0 -24 1 -82 1 -130 0 -49 0 -94 1
-100 0 -7 0 -40 -1 -73 -2 -130 -2 -135 11 -135 120 -5 6660 0 6668 5 6 3 8
11 4 16 -7 12 -8 168 -1 175 3 3 2 17 -2 32 -4 15 -4 39 0 55 4 15 4 27 -1 27
-5 0 -5 12 -1 28 4 15 5 38 1 52 -4 14 -3 37 1 51 4 15 3 32 -1 40 -7 11 -584
13 -3340 13 -1833 1 -3334 -2 -3336 -6z"/>
<path d="M4898 8884 c-4 -3 -31 -6 -60 -6 l-54 0 0 -1609 c0 -1116 3 -1609 11
-1610 5 -1 448 -2 983 -3 1058 -1 999 -4 982 53 -4 14 -4 35 0 45 4 11 4 36 1
55 -4 20 -4 52 -1 71 3 19 3 47 -1 63 -4 15 -5 27 -1 27 8 0 6 85 -2 99 -4 5
-2 12 3 15 4 3 5 23 2 43 -4 21 -4 54 -1 73 3 19 3 47 -1 63 -4 15 -4 27 0 27
4 0 6 15 4 33 -5 53 -5 139 0 144 3 2 1 18 -3 34 -5 16 -5 29 -1 29 4 0 6 15
4 33 -5 53 -5 139 0 144 3 2 1 18 -3 34 -5 16 -5 29 -1 29 7 0 5 84 -3 106 -2
6 -1 16 3 23 5 7 5 30 1 52 -4 22 -4 42 1 45 4 2 5 15 1 27 -5 12 -5 38 -2 57
3 19 3 47 -1 63 -4 15 -4 27 0 27 4 0 6 15 4 33 -5 53 -5 139 0 144 3 2 1 18
-3 34 -5 16 -5 29 -1 29 7 0 5 84 -3 106 -2 6 -1 16 3 23 5 7 5 30 1 52 -4 22
-4 42 1 45 4 2 5 15 1 27 -5 12 -5 38 -2 57 3 19 3 47 -1 63 -4 15 -4 27 0 27
4 0 6 15 4 33 -5 53 -5 139 0 144 3 2 1 18 -3 34 -5 16 -5 29 -1 29 7 0 5 84
-3 106 -2 6 -1 16 3 23 5 7 5 30 1 52 -4 22 -4 42 1 45 4 2 5 15 1 27 -5 12
-5 38 -2 57 3 19 3 47 -1 63 -4 15 -4 27 0 27 4 0 6 15 4 33 -5 53 -5 139 0
144 3 2 1 18 -3 34 -5 16 -5 29 -1 29 7 0 4 94 -4 117 -2 7 0 15 4 17 5 3 6
16 4 29 -5 23 -8 24 -86 23 -45 -1 -92 2 -103 5 -12 4 -25 5 -28 2 -9 -9 -175
-10 -208 -2 -14 4 -29 5 -32 1 -9 -8 -187 -9 -212 0 -12 4 -25 4 -28 1 -9 -9
-175 -10 -208 -2 -14 4 -29 5 -32 1 -9 -8 -187 -9 -212 0 -12 4 -25 4 -28 1
-9 -9 -175 -10 -208 -2 -14 4 -29 5 -32 1 -9 -8 -187 -9 -212 0 -12 4 -25 4
-28 1 -9 -10 -196 -9 -199 0 -1 5 -6 5 -9 1z"/>
<path d="M10687 8883 c-4 -3 -49 -6 -102 -6 l-94 -1 0 -1610 0 -1611 985 0
c715 1 987 4 992 12 4 6 7 730 6 1610 l-1 1598 -64 1 c-36 0 -69 3 -75 6 -5 4
-15 4 -21 0 -10 -6 -923 -8 -948 -2 -5 1 -12 1 -15 0 -14 -5 -189 -5 -212 1
-14 4 -29 5 -32 1 -9 -8 -187 -9 -213 0 -12 4 -24 4 -27 0 -5 -9 -148 -8 -162
1 -6 3 -14 4 -17 0z"/>
<path d="M7264 8625 c-2 -5 -3 -453 -2 -995 l3 -985 120 1 120 0 1 995 1 994
-120 0 c-70 0 -121 -4 -123 -10z"/>
<path d="M7769 8630 c-1 -3 -2 -446 -3 -984 -1 -693 2 -983 10 -990 12 -12
210 -14 222 -2 8 9 11 1975 2 1977 -21 4 -230 3 -231 -1z"/>
<path d="M8254 8631 c-7 -8 -4 -1981 4 -1982 4 0 60 -2 125 -2 98 -2 117 0
118 13 0 8 1 455 2 993 1 645 -1 977 -8 978 -36 3 -237 3 -241 0z"/>
<path d="M8761 8630 c-9 -6 -10 -1980 -2 -1981 23 -4 241 -3 242 1 1 3 2 448
3 988 1 629 -2 986 -9 990 -11 7 -224 9 -234 2z"/>
<path d="M9254 8625 c-2 -5 -3 -453 -2 -995 l3 -984 113 -1 c63 0 118 3 123 6
5 3 8 408 7 994 l-3 989 -119 0 c-71 1 -120 -3 -122 -9z"/>
<path d="M9742 7643 l0 -993 22 -1 c89 -5 213 -3 221 2 7 5 9 341 8 981 -1
535 -2 980 -2 988 -1 12 -22 15 -125 15 l-124 0 0 -992z"/>
<path d="M7268 6390 c-2 -8 -4 -177 -3 -375 l0 -360 1363 0 c749 0 1363 2
1363 5 5 21 3 724 -3 733 -8 13 -228 17 -228 4 0 -5 -6 -5 -12 -1 -7 5 -567 8
-1245 8 -1087 1 -1232 -1 -1235 -14z"/>
<path d="M405 5162 c-2 -3 -22 -5 -42 -6 l-38 -1 -1 -980 c0 -539 1 -984 3
-990 2 -7 668 -9 1976 -8 1084 0 1975 2 1979 2 4 1 7 447 7 991 l0 990 -47 0
c-26 0 -56 0 -67 0 -11 0 -36 0 -55 1 -19 1 -42 1 -50 0 -8 0 -40 0 -70 0 -30
0 -61 0 -67 0 -13 -1 -51 -1 -95 0 -40 0 -133 0 -145 0 -26 -2 -69 -2 -110 1
-24 1 -45 -1 -48 -4 -3 -3 -23 -2 -45 2 -21 4 -44 4 -50 0 -6 -4 -24 -5 -38
-3 -15 3 -36 4 -47 4 -11 0 -45 0 -75 0 -30 0 -61 0 -67 0 -26 -2 -69 -2 -110
1 -24 1 -45 -1 -48 -4 -3 -3 -23 -2 -45 2 -21 4 -44 4 -50 0 -6 -4 -24 -5 -38
-3 -15 3 -36 4 -47 4 -11 0 -45 0 -75 0 -30 0 -61 0 -67 0 -26 -2 -69 -2 -109
0 -22 2 -45 0 -50 -4 -5 -3 -16 -2 -24 3 -7 4 -24 4 -36 0 -14 -6 -26 -5 -29
1 -4 5 -11 7 -16 3 -6 -3 -36 -5 -67 -4 -31 1 -63 1 -69 1 -13 -1 -51 -1 -95
0 -40 0 -133 0 -145 0 -26 -2 -69 -2 -110 1 -24 1 -45 -1 -48 -4 -3 -3 -23 -2
-45 2 -21 4 -44 4 -50 0 -6 -4 -24 -5 -38 -3 -15 3 -36 4 -47 4 -11 0 -45 0
-75 0 -30 0 -61 0 -67 0 -26 -2 -69 -2 -110 1 -24 1 -45 -1 -48 -4 -3 -3 -23
-2 -45 2 -21 4 -44 4 -50 0 -6 -4 -24 -5 -38 -3 -15 3 -36 4 -47 4 -11 0 -45
0 -75 0 -30 0 -61 0 -67 0 -26 -2 -69 -2 -110 1 -24 1 -45 -1 -48 -4 -3 -3
-23 -2 -45 2 -21 4 -44 4 -50 0 -6 -4 -24 -5 -38 -3 -15 3 -36 4 -47 4 -11 0
-45 0 -75 0 -30 0 -61 0 -67 0 -26 -2 -69 -2 -110 1 -24 1 -45 -1 -48 -4 -3
-3 -23 -2 -45 2 -22 4 -42 5 -45 2z"/>
<path d="M4794 5162 c-12 -8 -15 -1974 -3 -1982 4 -3 1734 -5 3846 -4 l3838 0
1 26 c1 14 4 33 7 42 4 9 2 16 -3 16 -5 0 -5 13 0 30 5 17 5 30 1 30 -5 0 -5
18 -1 40 4 22 4 40 -1 40 -4 0 -4 13 1 30 5 17 5 32 0 35 -5 3 -6 16 -2 28 4
12 6 36 5 52 -2 17 -3 36 -3 43 0 6 0 19 0 27 0 8 0 22 0 30 0 8 0 22 0 30 0
8 0 22 0 30 0 8 0 22 0 30 0 8 0 22 0 30 0 8 0 22 0 30 0 8 0 22 0 30 0 8 0
22 0 30 0 8 0 22 0 30 0 8 0 22 0 30 0 8 0 22 0 30 0 8 0 22 0 30 0 8 0 22 0
30 0 8 0 22 0 30 0 8 0 22 0 30 0 8 0 22 0 30 0 8 -1 30 -2 48 -2 17 0 42 4
55 4 12 3 22 -2 22 -5 0 -5 12 0 30 5 17 5 30 1 30 -5 0 -5 18 -1 40 4 22 4
40 -1 40 -4 0 -4 13 1 30 5 17 5 32 0 35 -5 3 -6 16 -2 28 9 25 8 74 -1 83 -4
4 -2 15 3 25 7 11 7 20 0 24 -5 3 -6 15 -1 28 5 12 5 34 0 49 -4 16 -4 28 1
28 5 0 5 13 0 30 -5 17 -5 30 0 30 5 0 5 13 0 30 -5 17 -5 30 0 30 5 0 5 13 0
30 -5 18 -5 30 0 30 6 0 6 10 0 24 -5 13 -6 27 -3 30 8 8 9 76 1 76 -4 0 -3
14 2 30 5 17 6 30 2 30 -4 0 -6 21 -3 46 2 25 -2 51 -8 57 -8 8 -11 8 -11 0 0
-7 -11 -8 -34 -3 -19 4 -37 5 -40 3 -3 -3 -31 -4 -63 -3 -32 1 -64 1 -70 1
-13 -1 -51 -1 -95 0 -40 0 -133 0 -145 0 -26 -2 -69 -2 -110 1 -24 1 -45 -1
-48 -4 -3 -3 -23 -2 -45 2 -21 4 -44 4 -50 0 -6 -4 -24 -5 -38 -3 -15 3 -36 4
-47 4 -11 0 -45 0 -75 0 -30 0 -61 0 -67 0 -26 -2 -69 -2 -110 1 -24 1 -45 -1
-48 -4 -3 -3 -23 -2 -45 2 -21 4 -44 4 -50 0 -6 -4 -24 -5 -38 -3 -15 3 -36 4
-47 4 -11 0 -45 0 -75 0 -30 0 -61 0 -67 0 -26 -2 -69 -2 -110 1 -24 1 -45 -1
-48 -4 -3 -3 -23 -2 -45 2 -21 4 -44 4 -50 0 -6 -4 -24 -5 -38 -3 -15 3 -36 4
-47 4 -11 0 -45 0 -75 0 -30 0 -61 0 -67 0 -26 -2 -69 -2 -110 1 -24 1 -45 -1
-48 -4 -3 -3 -23 -2 -45 2 -21 4 -44 4 -50 0 -6 -4 -24 -5 -38 -3 -15 3 -36 4
-47 4 -11 0 -45 0 -75 0 -30 0 -61 0 -67 0 -26 -2 -69 -2 -110 1 -24 1 -45 -1
-48 -4 -3 -3 -23 -2 -45 2 -21 4 -44 4 -50 0 -6 -4 -24 -5 -38 -3 -15 3 -36 4
-47 4 -11 0 -45 0 -75 0 -30 0 -61 0 -67 0 -26 -2 -69 -2 -110 1 -24 1 -45 -1
-48 -4 -3 -3 -23 -2 -45 2 -21 4 -44 4 -50 0 -6 -4 -24 -5 -38 -3 -15 3 -36 4
-47 4 -11 0 -45 0 -75 0 -30 0 -61 0 -67 0 -26 -2 -69 -2 -110 1 -24 1 -45 -1
-48 -4 -3 -3 -23 -2 -45 2 -21 4 -44 4 -50 0 -6 -4 -24 -5 -38 -3 -15 3 -36 4
-47 4 -11 0 -45 0 -75 0 -30 0 -61 0 -67 0 -26 -2 -69 -2 -110 1 -24 1 -45 -1
-48 -4 -3 -3 -23 -2 -45 2 -21 4 -44 4 -50 0 -6 -4 -24 -5 -38 -3 -15 3 -36 4
-47 4 -11 0 -45 0 -75 0 -30 0 -61 0 -67 0 -22 -2 -66 -2 -108 0 -22 0 -44 0
-50 -1 -5 -1 -13 -2 -16 -2 -20 3 -77 2 -99 -1 -14 -2 -32 0 -40 4 -9 4 -31 4
-50 0 -19 -4 -54 -4 -78 -1 -23 4 -45 3 -48 -2 -3 -4 -12 -4 -21 1 -9 5 -28 5
-43 1 -15 -4 -33 -4 -40 0 -7 4 -25 4 -40 0 -15 -4 -33 -4 -40 0 -7 4 -25 4
-40 0 -15 -4 -33 -4 -40 0 -7 4 -25 4 -40 0 -15 -4 -33 -4 -40 0 -7 4 -25 4
-40 0 -15 -4 -33 -4 -40 0 -7 4 -25 4 -40 0 -15 -4 -33 -4 -40 0 -7 4 -25 4
-40 0 -15 -4 -33 -4 -40 0 -7 4 -25 4 -40 0 -15 -4 -33 -4 -40 0 -7 4 -25 4
-40 0 -15 -4 -33 -4 -40 0 -7 4 -25 4 -40 0 -15 -4 -33 -4 -40 0 -7 4 -25 4
-40 0 -15 -4 -33 -4 -40 0 -7 4 -25 4 -40 0 -15 -4 -33 -4 -40 0 -7 4 -25 4
-40 0 -15 -4 -33 -4 -40 0 -7 4 -25 4 -40 0 -15 -4 -33 -4 -40 0 -7 4 -25 4
-40 0 -15 -4 -33 -4 -40 0 -7 4 -25 4 -40 0 -15 -4 -33 -4 -40 0 -7 4 -25 4
-40 0 -15 -4 -33 -4 -40 0 -7 4 -25 4 -40 0 -15 -4 -33 -4 -40 0 -7 4 -25 4
-40 0 -15 -4 -33 -4 -40 0 -7 4 -25 4 -40 0 -15 -4 -33 -4 -40 0 -7 4 -25 4
-40 0 -15 -4 -33 -4 -40 0 -7 4 -25 4 -40 0 -15 -4 -33 -4 -40 0 -7 4 -25 4
-40 0 -15 -4 -33 -4 -40 0 -7 4 -25 4 -40 0 -15 -4 -33 -4 -40 0 -7 4 -25 4
-40 0 -15 -4 -33 -4 -40 0 -7 4 -25 4 -40 0 -15 -4 -33 -4 -40 0 -7 4 -25 4
-40 0 -15 -4 -33 -4 -40 0 -7 4 -25 4 -40 0 -15 -4 -33 -4 -40 0 -7 4 -25 4
-40 0 -15 -4 -33 -4 -40 0 -7 4 -25 4 -40 0 -15 -4 -33 -4 -40 0 -7 4 -25 4
-41 0 -15 -5 -30 -6 -33 -3 -8 8 -112 7 -125 -1 -5 -4 -12 -2 -16 4 -4 6 -11
8 -16 4 -6 -3 -36 -5 -67 -4 -66 2 -69 2 -102 -3 -14 -2 -32 0 -41 4 -8 4 -20
5 -25 1z"/>
</g>
</svg>
